<?xml version="1.0" encoding="UTF-8" standalone="no"?><svg xmlns="http://www.w3.org/2000/svg" xmlns:xlink="http://www.w3.org/1999/xlink" contentScriptType="application/ecmascript" contentStyleType="text/css" height="665px" preserveAspectRatio="none" style="width:602px;height:665px;background:#FFFFFF;" version="1.1" viewBox="0 0 602 665" width="602px" zoomAndPan="magnify"><defs/><g><line style="stroke:#808080;stroke-width:1.0;stroke-dasharray:5.0,5.0;" x1="149.5" x2="149.5" y1="34.3921" y2="658.8687"/><line style="stroke:#808080;stroke-width:1.0;stroke-dasharray:5.0,5.0;" x1="450" x2="450" y1="34.3921" y2="658.8687"/><rect fill="#FFFFFF" height="28.3921" style="stroke:#000000;stroke-width:1.0;" width="39" x="130.5" y="5"/><text fill="#000000" font-family="Lato" font-size="12" lengthAdjust="spacing" textLength="25" x="137.5" y="23.8375">User</text><rect fill="#FFFFFF" height="28.3921" style="stroke:#000000;stroke-width:1.0;" width="38" x="431" y="5"/><text fill="#000000" font-family="Lato" font-size="12" lengthAdjust="spacing" textLength="24" x="438" y="23.8375">Peer</text><path d="M133,49.3921 L133,73.3921 L466,73.3921 L466,59.3921 L456,49.3921 L133,49.3921 " fill="#E8E8E8" style="stroke:#808080;stroke-width:1.0;"/><path d="M456,49.3921 L456,59.3921 L466,59.3921 L456,49.3921 " fill="#E8E8E8" style="stroke:#808080;stroke-width:1.0;"/><text fill="#000000" font-family="Lato" font-size="12" lengthAdjust="spacing" textLength="171" x="141.25" y="66.2296">Shared information: cipher suite,</text><text fill="#000000" font-family="Lato" font-size="12" font-style="italic" lengthAdjust="spacing" textLength="32" x="314.25" y="66.2296">UserId</text><text fill="#000000" font-family="Lato" font-size="12" lengthAdjust="spacing" textLength="3" x="346.25" y="66.2296">,</text><text fill="#000000" font-family="Lato" font-size="12" font-style="italic" lengthAdjust="spacing" textLength="32" x="351.25" y="66.2296">PeerId</text><text fill="#000000" font-family="Lato" font-size="12" lengthAdjust="spacing" textLength="59" x="383.25" y="66.2296">, and secret</text><text fill="#000000" font-family="Lato" font-size="12" font-style="italic" lengthAdjust="spacing" textLength="5" x="444.25" y="66.2296">s</text><line style="stroke:#000000;stroke-width:1.0;" x1="150" x2="192" y1="140.9873" y2="140.9873"/><line style="stroke:#000000;stroke-width:1.0;" x1="192" x2="192" y1="140.9873" y2="153.9873"/><line style="stroke:#000000;stroke-width:1.0;" x1="151" x2="192" y1="153.9873" y2="153.9873"/><polygon fill="#000000" points="161,149.9873,151,153.9873,161,157.9873" style="stroke:#000000;stroke-width:1.0;"/><text fill="#000000" font-family="Consolas" font-size="12" lengthAdjust="spacing" textLength="112" x="157" y="94.7725">psa_pake_setup()</text><text fill="#000000" font-family="Consolas" font-size="12" lengthAdjust="spacing" textLength="133" x="157" y="108.8232">psa_pake_set_user()</text><text fill="#000000" font-family="Consolas" font-size="12" lengthAdjust="spacing" textLength="133" x="157" y="122.874">psa_pake_set_peer()</text><text fill="#000000" font-family="Consolas" font-size="12" lengthAdjust="spacing" textLength="189" x="157" y="136.9248">psa_pake_set_password_key()</text><path d="M20,166.9873 L20,219.9873 L280,219.9873 L280,176.9873 L270,166.9873 L20,166.9873 " fill="#E8E8E8" style="stroke:#808080;stroke-width:1.0;"/><path d="M270,166.9873 L270,176.9873 L280,176.9873 L270,166.9873 " fill="#E8E8E8" style="stroke:#808080;stroke-width:1.0;"/><text fill="#000000" font-family="Lato" font-size="12" lengthAdjust="spacing" textLength="49" x="26" y="183.8248">Generate</text><text fill="#000000" font-family="Lato" font-size="12" font-style="italic" lengthAdjust="spacing" textLength="13" x="77" y="183.8248">x1</text><text fill="#000000" font-family="Lato" font-size="12" lengthAdjust="spacing" textLength="20" x="92" y="183.8248">and</text><text fill="#000000" font-family="Lato" font-size="12" font-style="italic" lengthAdjust="spacing" textLength="13" x="114" y="183.8248">x2</text><text fill="#000000" font-family="Lato" font-size="12" lengthAdjust="spacing" textLength="109" x="26" y="198.2169">Compute public keys</text><text fill="#000000" font-family="Lato" font-size="12" font-style="italic" lengthAdjust="spacing" textLength="13" x="137" y="198.2169">g1</text><text fill="#000000" font-family="Lato" font-size="12" lengthAdjust="spacing" textLength="20" x="152" y="198.2169">and</text><text fill="#000000" font-family="Lato" font-size="12" font-style="italic" lengthAdjust="spacing" textLength="13" x="174" y="198.2169">g2</text><text fill="#000000" font-family="Lato" font-size="12" lengthAdjust="spacing" textLength="73" x="26" y="212.609">Compute ZKP</text><text fill="#000000" font-family="Lato" font-size="12" font-style="italic" lengthAdjust="spacing" textLength="37" x="101" y="212.609">(V1, r1)</text><text fill="#000000" font-family="Lato" font-size="12" lengthAdjust="spacing" textLength="16" x="140" y="212.609">for</text><text fill="#000000" font-family="Lato" font-size="12" font-style="italic" lengthAdjust="spacing" textLength="13" x="158" y="212.609">g1</text><text fill="#000000" font-family="Lato" font-size="12" lengthAdjust="spacing" textLength="20" x="173" y="212.609">and</text><text fill="#000000" font-family="Lato" font-size="12" font-style="italic" lengthAdjust="spacing" textLength="37" x="195" y="212.609">(V2, r2)</text><text fill="#000000" font-family="Lato" font-size="12" lengthAdjust="spacing" textLength="16" x="234" y="212.609">for</text><text fill="#000000" font-family="Lato" font-size="12" font-style="italic" lengthAdjust="spacing" textLength="13" x="252" y="212.609">g2</text><path d="M317,166.9873 L317,219.9873 L582,219.9873 L582,176.9873 L572,166.9873 L317,166.9873 " fill="#E8E8E8" style="stroke:#808080;stroke-width:1.0;"/><path d="M572,166.9873 L572,176.9873 L582,176.9873 L572,166.9873 " fill="#E8E8E8" style="stroke:#808080;stroke-width:1.0;"/><text fill="#000000" font-family="Lato" font-size="12" lengthAdjust="spacing" textLength="49" x="323" y="183.8248">Generate</text><text fill="#000000" font-family="Lato" font-size="12" font-style="italic" lengthAdjust="spacing" textLength="13" x="374" y="183.8248">x3</text><text fill="#000000" font-family="Lato" font-size="12" lengthAdjust="spacing" textLength="20" x="389" y="183.8248">and</text><text fill="#000000" font-family="Lato" font-size="12" font-style="italic" lengthAdjust="spacing" textLength="13" x="411" y="183.8248">x4</text><text fill="#000000" font-family="Lato" font-size="12" lengthAdjust="spacing" textLength="109" x="323" y="198.2169">Compute public keys</text><text fill="#000000" font-family="Lato" font-size="12" font-style="italic" lengthAdjust="spacing" textLength="13" x="434" y="198.2169">g3</text><text fill="#000000" font-family="Lato" font-size="12" lengthAdjust="spacing" textLength="20" x="449" y="198.2169">and</text><text fill="#000000" font-family="Lato" font-size="12" font-style="italic" lengthAdjust="spacing" textLength="13" x="471" y="198.2169">g4</text><text fill="#000000" font-family="Lato" font-size="12" lengthAdjust="spacing" textLength="78" x="323" y="212.609">Compute ZKPs</text><text fill="#000000" font-family="Lato" font-size="12" font-style="italic" lengthAdjust="spacing" textLength="37" x="403" y="212.609">(V3, r3)</text><text fill="#000000" font-family="Lato" font-size="12" lengthAdjust="spacing" textLength="16" x="442" y="212.609">for</text><text fill="#000000" font-family="Lato" font-size="12" font-style="italic" lengthAdjust="spacing" textLength="13" x="460" y="212.609">g3</text><text fill="#000000" font-family="Lato" font-size="12" lengthAdjust="spacing" textLength="20" x="475" y="212.609">and</text><text fill="#000000" font-family="Lato" font-size="12" font-style="italic" lengthAdjust="spacing" textLength="37" x="497" y="212.609">(V4, r4)</text><text fill="#000000" font-family="Lato" font-size="12" lengthAdjust="spacing" textLength="16" x="536" y="212.609">for</text><text fill="#000000" font-family="Lato" font-size="12" font-style="italic" lengthAdjust="spacing" textLength="13" x="554" y="212.609">g4</text><line style="stroke:#000000;stroke-width:1.0;" x1="150" x2="192" y1="245.5557" y2="245.5557"/><line style="stroke:#000000;stroke-width:1.0;" x1="192" x2="192" y1="245.5557" y2="258.5557"/><line style="stroke:#000000;stroke-width:1.0;" x1="151" x2="192" y1="258.5557" y2="258.5557"/><polygon fill="#000000" points="161,254.5557,151,258.5557,161,262.5557" style="stroke:#000000;stroke-width:1.0;"/><text fill="#000000" font-family="Consolas" font-size="12" lengthAdjust="spacing" textLength="119" x="157" y="241.4932">psa_pake_output()</text><text fill="#000000" font-family="Lato" font-size="12" lengthAdjust="spacing" textLength="16" x="278" y="241.0011">for</text><text fill="#000000" font-family="Lato" font-size="12" font-style="italic" lengthAdjust="spacing" textLength="87" x="296" y="241.0011">g1, V1, r1, g2, V2</text><text fill="#000000" font-family="Lato" font-size="12" lengthAdjust="spacing" textLength="25" x="383" y="241.0011">, and</text><text fill="#000000" font-family="Lato" font-size="12" font-style="italic" lengthAdjust="spacing" textLength="11" x="410" y="241.0011">r2</text><line style="stroke:#000000;stroke-width:1.0;" x1="448" x2="438" y1="286.9478" y2="282.9478"/><line style="stroke:#000000;stroke-width:1.0;" x1="448" x2="438" y1="286.9478" y2="290.9478"/><line style="stroke:#000000;stroke-width:1.0;" x1="150" x2="449" y1="286.9478" y2="286.9478"/><text fill="#000000" font-family="Lato" font-size="12" font-style="italic" lengthAdjust="spacing" textLength="109" x="157" y="282.3932">(g1, V1, r1, g2, V2, r2)</text><line style="stroke:#000000;stroke-width:1.0;" x1="150" x2="160" y1="315.3398" y2="311.3398"/><line style="stroke:#000000;stroke-width:1.0;" x1="150" x2="160" y1="315.3398" y2="319.3398"/><line style="stroke:#000000;stroke-width:1.0;" x1="150" x2="449" y1="315.3398" y2="315.3398"/><text fill="#000000" font-family="Lato" font-size="12" font-style="italic" lengthAdjust="spacing" textLength="109" x="167" y="310.7852">(g3, V3, r3, g4, V4, r4)</text><line style="stroke:#000000;stroke-width:1.0;" x1="150" x2="192" y1="343.7319" y2="343.7319"/><line style="stroke:#000000;stroke-width:1.0;" x1="192" x2="192" y1="343.7319" y2="356.7319"/><line style="stroke:#000000;stroke-width:1.0;" x1="151" x2="192" y1="356.7319" y2="356.7319"/><polygon fill="#000000" points="161,352.7319,151,356.7319,161,360.7319" style="stroke:#000000;stroke-width:1.0;"/><text fill="#000000" font-family="Consolas" font-size="12" lengthAdjust="spacing" textLength="112" x="157" y="339.6694">psa_pake_input()</text><text fill="#000000" font-family="Lato" font-size="12" lengthAdjust="spacing" textLength="16" x="271" y="339.1773">for</text><text fill="#000000" font-family="Lato" font-size="12" font-style="italic" lengthAdjust="spacing" textLength="87" x="289" y="339.1773">g3, V3, r3, g4, V4</text><text fill="#000000" font-family="Lato" font-size="12" lengthAdjust="spacing" textLength="25" x="376" y="339.1773">, and</text><text fill="#000000" font-family="Lato" font-size="12" font-style="italic" lengthAdjust="spacing" textLength="11" x="403" y="339.1773">r4</text><path d="M5,369.7319 L5,393.7319 L295,393.7319 L295,379.7319 L285,369.7319 L5,369.7319 " fill="#E8E8E8" style="stroke:#808080;stroke-width:1.0;"/><path d="M285,369.7319 L285,379.7319 L295,379.7319 L285,369.7319 " fill="#E8E8E8" style="stroke:#808080;stroke-width:1.0;"/><text fill="#000000" font-family="Lato" font-size="12" lengthAdjust="spacing" textLength="132" x="11" y="386.5694">Verify ZKPs and compute</text><text fill="#000000" font-family="Lato" font-size="12" font-style="italic" lengthAdjust="spacing" textLength="7" x="145" y="386.5694">A</text><text fill="#000000" font-family="Lato" font-size="12" lengthAdjust="spacing" textLength="44" x="154" y="386.5694">and ZKP</text><text fill="#000000" font-family="Lato" font-size="12" font-style="italic" lengthAdjust="spacing" textLength="37" x="200" y="386.5694">(V5, r5)</text><text fill="#000000" font-family="Lato" font-size="12" lengthAdjust="spacing" textLength="16" x="239" y="386.5694">for</text><text fill="#000000" font-family="Lato" font-size="12" font-style="italic" lengthAdjust="spacing" textLength="13" x="257" y="386.5694">x2</text><text fill="#000000" font-family="Lato" font-size="12" lengthAdjust="spacing" textLength="5" x="270" y="386.5694">*</text><text fill="#000000" font-family="Lato" font-size="12" font-style="italic" lengthAdjust="spacing" textLength="5" x="275" y="386.5694">s</text><path d="M305,369.7319 L305,393.7319 L595,393.7319 L595,379.7319 L585,369.7319 L305,369.7319 " fill="#E8E8E8" style="stroke:#808080;stroke-width:1.0;"/><path d="M585,369.7319 L585,379.7319 L595,379.7319 L585,369.7319 " fill="#E8E8E8" style="stroke:#808080;stroke-width:1.0;"/><text fill="#000000" font-family="Lato" font-size="12" lengthAdjust="spacing" textLength="132" x="311" y="386.5694">Verify ZKPs and compute</text><text fill="#000000" font-family="Lato" font-size="12" font-style="italic" lengthAdjust="spacing" textLength="7" x="445" y="386.5694">B</text><text fill="#000000" font-family="Lato" font-size="12" lengthAdjust="spacing" textLength="44" x="454" y="386.5694">and ZKP</text><text fill="#000000" font-family="Lato" font-size="12" font-style="italic" lengthAdjust="spacing" textLength="37" x="500" y="386.5694">(V6, r6)</text><text fill="#000000" font-family="Lato" font-size="12" lengthAdjust="spacing" textLength="16" x="539" y="386.5694">for</text><text fill="#000000" font-family="Lato" font-size="12" font-style="italic" lengthAdjust="spacing" textLength="13" x="557" y="386.5694">x4</text><text fill="#000000" font-family="Lato" font-size="12" lengthAdjust="spacing" textLength="5" x="570" y="386.5694">*</text><text fill="#000000" font-family="Lato" font-size="12" font-style="italic" lengthAdjust="spacing" textLength="5" x="575" y="386.5694">s</text><line style="stroke:#000000;stroke-width:1.0;" x1="150" x2="192" y1="419.5161" y2="419.5161"/><line style="stroke:#000000;stroke-width:1.0;" x1="192" x2="192" y1="419.5161" y2="432.5161"/><line style="stroke:#000000;stroke-width:1.0;" x1="151" x2="192" y1="432.5161" y2="432.5161"/><polygon fill="#000000" points="161,428.5161,151,432.5161,161,436.5161" style="stroke:#000000;stroke-width:1.0;"/><text fill="#000000" font-family="Consolas" font-size="12" lengthAdjust="spacing" textLength="119" x="157" y="415.4536">psa_pake_output()</text><text fill="#000000" font-family="Lato" font-size="12" lengthAdjust="spacing" textLength="16" x="278" y="414.9615">for</text><text fill="#000000" font-family="Lato" font-size="12" font-style="italic" lengthAdjust="spacing" textLength="27" x="296" y="414.9615">A, V5</text><text fill="#000000" font-family="Lato" font-size="12" lengthAdjust="spacing" textLength="25" x="323" y="414.9615">, and</text><text fill="#000000" font-family="Lato" font-size="12" font-style="italic" lengthAdjust="spacing" textLength="11" x="350" y="414.9615">r5</text><line style="stroke:#000000;stroke-width:1.0;" x1="448" x2="438" y1="460.9082" y2="456.9082"/><line style="stroke:#000000;stroke-width:1.0;" x1="448" x2="438" y1="460.9082" y2="464.9082"/><line style="stroke:#000000;stroke-width:1.0;" x1="150" x2="449" y1="460.9082" y2="460.9082"/><text fill="#000000" font-family="Lato" font-size="12" font-style="italic" lengthAdjust="spacing" textLength="49" x="157" y="456.3536">(A, V5, r5)</text><line style="stroke:#000000;stroke-width:1.0;" x1="150" x2="160" y1="489.3003" y2="485.3003"/><line style="stroke:#000000;stroke-width:1.0;" x1="150" x2="160" y1="489.3003" y2="493.3003"/><line style="stroke:#000000;stroke-width:1.0;" x1="150" x2="449" y1="489.3003" y2="489.3003"/><text fill="#000000" font-family="Lato" font-size="12" font-style="italic" lengthAdjust="spacing" textLength="49" x="167" y="484.7457">(B, V6, r6)</text><line style="stroke:#000000;stroke-width:1.0;" x1="150" x2="192" y1="517.6924" y2="517.6924"/><line style="stroke:#000000;stroke-width:1.0;" x1="192" x2="192" y1="517.6924" y2="530.6924"/><line style="stroke:#000000;stroke-width:1.0;" x1="151" x2="192" y1="530.6924" y2="530.6924"/><polygon fill="#000000" points="161,526.6924,151,530.6924,161,534.6924" style="stroke:#000000;stroke-width:1.0;"/><text fill="#000000" font-family="Consolas" font-size="12" lengthAdjust="spacing" textLength="112" x="157" y="513.6299">psa_pake_input()</text><text fill="#000000" font-family="Lato" font-size="12" lengthAdjust="spacing" textLength="16" x="271" y="513.1378">for</text><text fill="#000000" font-family="Lato" font-size="12" font-style="italic" lengthAdjust="spacing" textLength="27" x="289" y="513.1378">B, V6</text><text fill="#000000" font-family="Lato" font-size="12" lengthAdjust="spacing" textLength="25" x="316" y="513.1378">, and</text><text fill="#000000" font-family="Lato" font-size="12" font-style="italic" lengthAdjust="spacing" textLength="11" x="343" y="513.1378">r6</text><path d="M68,543.6924 L68,567.6924 L232,567.6924 L232,553.6924 L222,543.6924 L68,543.6924 " fill="#E8E8E8" style="stroke:#808080;stroke-width:1.0;"/><path d="M222,543.6924 L222,553.6924 L232,553.6924 L222,543.6924 " fill="#E8E8E8" style="stroke:#808080;stroke-width:1.0;"/><text fill="#000000" font-family="Lato" font-size="12" lengthAdjust="spacing" textLength="127" x="74" y="560.5299">Verify ZKP and compute</text><text fill="#000000" font-family="Lato" font-size="12" font-style="italic" lengthAdjust="spacing" textLength="14" x="203" y="560.5299">Ka</text><path d="M368,543.6924 L368,567.6924 L532,567.6924 L532,553.6924 L522,543.6924 L368,543.6924 " fill="#E8E8E8" style="stroke:#808080;stroke-width:1.0;"/><path d="M522,543.6924 L522,553.6924 L532,553.6924 L522,543.6924 " fill="#E8E8E8" style="stroke:#808080;stroke-width:1.0;"/><text fill="#000000" font-family="Lato" font-size="12" lengthAdjust="spacing" textLength="127" x="374" y="560.5299">Verify ZKP and compute</text><text fill="#000000" font-family="Lato" font-size="12" font-style="italic" lengthAdjust="spacing" textLength="14" x="503" y="560.5299">Kb</text><path d="M133,578.0845 L133,602.0845 L466,602.0845 L466,588.0845 L456,578.0845 L133,578.0845 " fill="#E8E8E8" style="stroke:#808080;stroke-width:1.0;"/><path d="M456,578.0845 L456,588.0845 L466,588.0845 L456,578.0845 " fill="#E8E8E8" style="stroke:#808080;stroke-width:1.0;"/><text fill="#000000" font-family="Lato" font-size="12" lengthAdjust="spacing" textLength="172" x="170.75" y="594.922">If both sides used the same secret</text><text fill="#000000" font-family="Lato" font-size="12" font-style="italic" lengthAdjust="spacing" textLength="5" x="344.75" y="594.922">s</text><text fill="#000000" font-family="Lato" font-size="12" lengthAdjust="spacing" textLength="29" x="349.75" y="594.922">, then</text><text fill="#000000" font-family="Lato" font-size="12" font-style="italic" lengthAdjust="spacing" textLength="14" x="380.75" y="594.922">Ka</text><text fill="#000000" font-family="Lato" font-size="12" lengthAdjust="spacing" textLength="7" x="396.75" y="594.922">=</text><text fill="#000000" font-family="Lato" font-size="12" font-style="italic" lengthAdjust="spacing" textLength="14" x="405.75" y="594.922">Kb</text><line style="stroke:#000000;stroke-width:1.0;" x1="150" x2="192" y1="627.8687" y2="627.8687"/><line style="stroke:#000000;stroke-width:1.0;" x1="192" x2="192" y1="627.8687" y2="640.8687"/><line style="stroke:#000000;stroke-width:1.0;" x1="151" x2="192" y1="640.8687" y2="640.8687"/><polygon fill="#000000" points="161,636.8687,151,640.8687,161,644.8687" style="stroke:#000000;stroke-width:1.0;"/><text fill="#000000" font-family="Consolas" font-size="12" lengthAdjust="spacing" textLength="189" x="157" y="623.8062">psa_pake_get_implicit_key()</text><text fill="#000000" font-family="Lato" font-size="12" lengthAdjust="spacing" textLength="50" x="348" y="623.3141">to extract</text><text fill="#000000" font-family="Lato" font-size="12" font-style="italic" lengthAdjust="spacing" textLength="14" x="400" y="623.3141">Ka</text></g></svg>