<?xml version="1.0" encoding="UTF-8" standalone="no"?><svg xmlns="http://www.w3.org/2000/svg" xmlns:xlink="http://www.w3.org/1999/xlink" contentScriptType="application/ecmascript" contentStyleType="text/css" height="460px" preserveAspectRatio="none" style="width:534px;height:460px;background:#FFFFFF;" version="1.1" viewBox="0 0 534 460" width="534px" zoomAndPan="magnify"><defs/><g><rect fill="#FFFFFF" height="447" style="stroke:#8B0000;stroke-width:1.0;stroke-dasharray:7.0,7.0;" width="403" x="125" y="7"/><text fill="#000000" font-family="Lato" font-size="12" font-style="italic" lengthAdjust="spacing" textLength="94" x="279.5" y="20.8375">«System boundary»</text><rect fill="#FFFFFF" height="83" style="stroke:#8B0000;stroke-width:1.0;stroke-dasharray:7.0,7.0;" width="129" x="208" y="48"/><text fill="#000000" font-family="Lato" font-size="12" font-style="italic" lengthAdjust="spacing" textLength="113" x="216" y="61.8375">«Application boundary»</text><rect fill="#FFFFFF" height="83" style="stroke:#8B0000;stroke-width:1.0;stroke-dasharray:7.0,7.0;" width="146" x="199" y="347"/><text fill="#000000" font-family="Lato" font-size="12" font-style="italic" lengthAdjust="spacing" textLength="113" x="215.5" y="360.8375">«Application boundary»</text><rect fill="#FFFFFF" height="92" style="stroke:#8B0000;stroke-width:1.0;stroke-dasharray:7.0,7.0;" width="296" x="208" y="193"/><text fill="#000000" font-family="Lato" font-size="12" font-style="italic" lengthAdjust="spacing" textLength="138" x="287" y="206.8375">«Cryptoprocessor boundary»</text><!--MD5=[a21d1e8c45edd0a89909a726cff5f3be]
entity nvm--><path d="M141,236 C141,226 165,226 165,226 C165,226 189,226 189,236 L189,259.3921 C189,269.3921 165,269.3921 165,269.3921 C165,269.3921 141,269.3921 141,259.3921 L141,236 " fill="#FFFFFF" style="stroke:#000000;stroke-width:1.5;"/><path d="M141,236 C141,246 165,246 165,246 C165,246 189,246 189,236 " fill="none" style="stroke:#000000;stroke-width:1.5;"/><text fill="#000000" font-family="Lato" font-size="12" lengthAdjust="spacing" textLength="28" x="151" y="261.8375">NVM</text><!--MD5=[4541fb81c80c07473fe4b07432ef0971]
entity app--><rect fill="#FFFFFF" height="34.3921" rx="35" ry="35" style="stroke:#000000;stroke-width:1.5;" width="81" x="231.5" y="81"/><text fill="#000000" font-family="Lato" font-size="12" lengthAdjust="spacing" textLength="61" x="241.5" y="102.8375">Application</text><!--MD5=[81be28259591a23f63462d93727ccfe3]
entity app2--><rect fill="#FFFFFF" height="34.3921" rx="35" ry="35" style="stroke:#000000;stroke-width:1.5;" width="113" x="215.5" y="380"/><text fill="#000000" font-family="Lato" font-size="12" lengthAdjust="spacing" textLength="93" x="225.5" y="401.8375">Other application</text><!--MD5=[6cc4354bc172bfab4bc5d504e938f9dd]
entity crypto--><rect fill="#FFFFFF" height="34.3921" rx="35" ry="35" style="stroke:#000000;stroke-width:1.5;" width="110" x="224" y="230.5"/><text fill="#000000" font-family="Lato" font-size="12" lengthAdjust="spacing" textLength="90" x="234" y="252.3375">Cryptoprocessor</text><!--MD5=[885534b20a890cf314c9a5b140ec18ce]
entity keys--><path d="M418,236 C418,226 453,226 453,226 C453,226 488,226 488,236 L488,259.3921 C488,269.3921 453,269.3921 453,269.3921 C453,269.3921 418,269.3921 418,259.3921 L418,236 " fill="#FFFFFF" style="stroke:#000000;stroke-width:1.5;"/><path d="M418,236 C418,246 453,246 453,246 C453,246 488,246 488,236 " fill="none" style="stroke:#000000;stroke-width:1.5;"/><text fill="#000000" font-family="Lato" font-size="12" lengthAdjust="spacing" textLength="50" x="428" y="261.8375">Key Store</text><!--MD5=[7c6cc8532223f11e77b82be6cbdb2ea3]
entity ext--><rect fill="#FFFFFF" height="34.3921" style="stroke:#000000;stroke-width:1.0;" width="102" x="7" y="81"/><text fill="#000000" font-family="Lato" font-size="12" lengthAdjust="spacing" textLength="82" x="17" y="102.8375">External system</text><!--MD5=[38d6d73a6b49b79b00c4898ab692af99]
entity ext2--><rect fill="#FFFFFF" height="34.3921" style="stroke:#000000;stroke-width:1.0;" width="102" x="7" y="380"/><text fill="#000000" font-family="Lato" font-size="12" lengthAdjust="spacing" textLength="82" x="17" y="401.8375">External system</text><!--MD5=[914486b73b535f0c4ac49a8d72533c21]
link ext to app--><path d="M114.59,98 C149.39,98 193.4,98 226.03,98 " fill="none" id="ext-app" style="stroke:#000000;stroke-width:1.0;"/><polygon fill="#000000" points="231.17,98,222.17,94,226.17,98,222.17,102,231.17,98" style="stroke:#000000;stroke-width:1.0;"/><polygon fill="#000000" points="109.26,98,118.26,102,114.26,98,118.26,94,109.26,98" style="stroke:#000000;stroke-width:1.0;"/><text fill="#000000" font-family="Lato" font-size="12" lengthAdjust="spacing" textLength="54" x="143.25" y="91.8375">ciphertext</text><!--MD5=[afa71a5be940e711015fa3b5ab6b09c3]
link ext2 to app2--><path d="M114.57,397 C143.93,397 179.86,397 209.97,397 " fill="none" id="ext2-app2" style="stroke:#000000;stroke-width:1.0;"/><polygon fill="#000000" points="215.14,397,206.14,393,210.14,397,206.14,401,215.14,397" style="stroke:#000000;stroke-width:1.0;"/><polygon fill="#000000" points="109.26,397,118.26,401,114.26,397,118.26,393,109.26,397" style="stroke:#000000;stroke-width:1.0;"/><text fill="#000000" font-family="Lato" font-size="12" lengthAdjust="spacing" textLength="54" x="135.25" y="390.8375">ciphertext</text><!--MD5=[0ee8252cc19ab4efcd3d1c5bb6f5b4c7]
link app to nvm--><path d="M237.18,117.93 C225.4,125.69 212.97,135.55 204,147 C186.83,168.9 176.39,199.29 170.69,220.71 " fill="none" id="app-nvm" style="stroke:#000000;stroke-width:1.0;"/><polygon fill="#000000" points="169.41,225.67,175.5217,217.9468,170.6529,220.8269,167.7728,215.9582,169.41,225.67" style="stroke:#000000;stroke-width:1.0;"/><polygon fill="#000000" points="241.48,115.17,231.7464,116.6721,237.2741,117.8738,236.0724,123.4015,241.48,115.17" style="stroke:#000000;stroke-width:1.0;"/><text fill="#000000" font-family="Lato" font-size="12" lengthAdjust="spacing" textLength="54" x="205" y="166.8375">ciphertext</text><!--MD5=[3f37c4ac8cf0e4d93fd6e4b712a17667]
link nvm to app2--><path d="M173.98,274.43 C180.55,291.41 190.48,313.6 203,331 C215.38,348.22 232.79,364.58 247.02,376.57 " fill="none" id="nvm-app2" style="stroke:#000000;stroke-width:1.0;"/><polygon fill="#000000" points="250.94,379.84,246.5835,371.007,247.0977,376.6405,241.4643,377.1547,250.94,379.84" style="stroke:#000000;stroke-width:1.0;"/><polygon fill="#000000" points="172.05,269.34,171.491,279.173,173.8181,274.0169,178.9742,276.344,172.05,269.34" style="stroke:#000000;stroke-width:1.0;"/><text fill="#000000" font-family="Lato" font-size="12" lengthAdjust="spacing" textLength="54" x="204" y="320.8375">ciphertext</text><!--MD5=[bee5b442cf37d2b76518bafe4d519181]
link nvm to crypto--><!--MD5=[c58860ea05fdddc49e7d0be27b22dd37]
link ext to ext2--><!--MD5=[4bd16bda29b8a051ff3f15cdb247d6db]
link app to crypto--><path d="M270.72,115.43 C270.06,124.69 269.33,136.48 269,147 C268.58,160.33 268.05,163.7 269,177 C270.16,193.21 272.82,211.38 275.11,225.08 " fill="none" id="app-to-crypto" style="stroke:#000000;stroke-width:1.0;"/><polygon fill="#000000" points="276,230.28,278.4257,220.7345,275.1572,225.3515,270.5401,222.0831,276,230.28" style="stroke:#000000;stroke-width:1.0;"/><text fill="#000000" font-family="Lato" font-size="12" lengthAdjust="spacing" textLength="60" x="270" y="159.8375">PSA Crypto</text><text fill="#000000" font-family="Lato" font-size="12" lengthAdjust="spacing" textLength="39" x="280.5" y="174.2296">API call</text><!--MD5=[9f3f5bfaeffb73b5d37908f968ab49ea]
reverse link app to crypto--><path d="M308.13,117.9 C318.77,125.42 329.13,135.14 335,147 C349.87,177.02 320.7,210.77 299.16,230.24 " fill="none" id="app-backto-crypto" style="stroke:#000000;stroke-width:1.0;"/><polygon fill="#000000" points="303.88,115.02,309.0834,123.3821,308.0181,117.8265,313.5737,116.7611,303.88,115.02" style="stroke:#000000;stroke-width:1.0;"/><text fill="#000000" font-family="Lato" font-size="12" lengthAdjust="spacing" textLength="48" x="340" y="166.8375">response</text><!--MD5=[d97952a852c713a1d6ef7ab17551ef04]
link crypto to keys--><path d="M334.05,247.5 C359.6,247.5 389.42,247.5 412.81,247.5 " fill="none" id="crypto-to-keys" style="stroke:#000000;stroke-width:1.0;"/><polygon fill="#000000" points="418,247.5,409,243.5,413,247.5,409,251.5,418,247.5" style="stroke:#000000;stroke-width:1.0;"/><text fill="#000000" font-family="Lato" font-size="12" lengthAdjust="spacing" textLength="47" x="352.5" y="241.3375">store key</text><!--MD5=[ead8b9a19e59888a5f7d56172008e43b]
reverse link crypto to keys--><path d="M339.35,264.79 C358.3,268.15 379.28,269.75 398.5,266.5 C404.92,265.41 411.6,263.65 417.98,261.63 " fill="none" id="crypto-backto-keys" style="stroke:#000000;stroke-width:1.0;"/><polygon fill="#000000" points="334.07,263.8,342.1708,269.4015,338.9831,264.7283,343.6562,261.5406,334.07,263.8" style="stroke:#000000;stroke-width:1.0;"/><text fill="#000000" font-family="Lato" font-size="12" lengthAdjust="spacing" textLength="43" x="354.5" y="263.3375">load key</text><!--MD5=[0f30f6033545611889b35b18e9f277bc]
reverse link crypto to app2--><path d="M273.96,269.98 C271.99,279.44 269.97,290.71 269,301 C266.39,328.6 268.5,360.89 270.26,379.82 " fill="none" id="crypto-backto-app2" style="stroke:#000000;stroke-width:1.0;"/><polygon fill="#000000" points="275.04,264.94,269.2541,272.9102,273.9992,269.8305,277.0789,274.5755,275.04,264.94" style="stroke:#000000;stroke-width:1.0;"/><text fill="#000000" font-family="Lato" font-size="12" lengthAdjust="spacing" textLength="60" x="270" y="313.8375">PSA Crypto</text><text fill="#000000" font-family="Lato" font-size="12" lengthAdjust="spacing" textLength="39" x="280.5" y="328.2296">API call</text><!--MD5=[fb657b9af53dd689848d1316dbc300f0]
link crypto to app2--><path d="M303.95,264.56 C315.73,273.67 328.59,286.2 335,301 C340.3,313.23 340.01,318.64 335,331 C327.67,349.08 312.64,364.92 299.09,376.43 " fill="none" id="crypto-to-app2" style="stroke:#000000;stroke-width:1.0;"/><polygon fill="#000000" points="294.94,379.86,304.4264,377.2128,298.7951,376.676,299.332,371.0446,294.94,379.86" style="stroke:#000000;stroke-width:1.0;"/><text fill="#000000" font-family="Lato" font-size="12" lengthAdjust="spacing" textLength="48" x="339" y="320.8375">response</text></g></svg>