<?xml version="1.0" encoding="UTF-8" standalone="no"?><svg xmlns="http://www.w3.org/2000/svg" xmlns:xlink="http://www.w3.org/1999/xlink" contentScriptType="application/ecmascript" contentStyleType="text/css" height="267px" preserveAspectRatio="none" style="width:728px;height:267px;background:#FFFFFF;" version="1.1" viewBox="0 0 728 267" width="728px" zoomAndPan="magnify"><defs/><g><rect fill="#FFFFFF" height="254" style="stroke:#8B0000;stroke-width:1.0;stroke-dasharray:7.0,7.0;" width="539" x="183" y="7"/><text fill="#000000" font-family="Lato" font-size="12" font-style="italic" lengthAdjust="spacing" textLength="94" x="405.5" y="20.8375">«System boundary»</text><rect fill="#FFFFFF" height="92" style="stroke:#8B0000;stroke-width:1.0;stroke-dasharray:7.0,7.0;" width="296" x="402" y="48"/><text fill="#000000" font-family="Lato" font-size="12" font-style="italic" lengthAdjust="spacing" textLength="138" x="481" y="61.8375">«Cryptoprocessor boundary»</text><!--MD5=[4541fb81c80c07473fe4b07432ef0971]
entity app--><rect fill="#FFFFFF" height="34.3921" rx="35" ry="35" style="stroke:#000000;stroke-width:1.5;" width="81" x="199.5" y="85.5"/><text fill="#000000" font-family="Lato" font-size="12" lengthAdjust="spacing" textLength="61" x="209.5" y="107.3375">Application</text><!--MD5=[a21d1e8c45edd0a89909a726cff5f3be]
entity nvm--><path d="M216,212 C216,202 240,202 240,202 C240,202 264,202 264,212 L264,235.3921 C264,245.3921 240,245.3921 240,245.3921 C240,245.3921 216,245.3921 216,235.3921 L216,212 " fill="#FFFFFF" style="stroke:#000000;stroke-width:1.5;"/><path d="M216,212 C216,222 240,222 240,222 C240,222 264,222 264,212 " fill="none" style="stroke:#000000;stroke-width:1.5;"/><text fill="#000000" font-family="Lato" font-size="12" lengthAdjust="spacing" textLength="28" x="226" y="237.8375">NVM</text><!--MD5=[6cc4354bc172bfab4bc5d504e938f9dd]
entity crypto--><rect fill="#FFFFFF" height="34.3921" rx="35" ry="35" style="stroke:#000000;stroke-width:1.5;" width="110" x="418" y="85.5"/><text fill="#000000" font-family="Lato" font-size="12" lengthAdjust="spacing" textLength="90" x="428" y="107.3375">Cryptoprocessor</text><!--MD5=[885534b20a890cf314c9a5b140ec18ce]
entity keys--><path d="M612,91 C612,81 647,81 647,81 C647,81 682,81 682,91 L682,114.3921 C682,124.3921 647,124.3921 647,124.3921 C647,124.3921 612,124.3921 612,114.3921 L612,91 " fill="#FFFFFF" style="stroke:#000000;stroke-width:1.5;"/><path d="M612,91 C612,101 647,101 647,101 C647,101 682,101 682,91 " fill="none" style="stroke:#000000;stroke-width:1.5;"/><text fill="#000000" font-family="Lato" font-size="12" lengthAdjust="spacing" textLength="50" x="622" y="116.8375">Key Store</text><!--MD5=[7c6cc8532223f11e77b82be6cbdb2ea3]
entity ext--><rect fill="#FFFFFF" height="34.3921" style="stroke:#000000;stroke-width:1.0;" width="102" x="7" y="85.5"/><text fill="#000000" font-family="Lato" font-size="12" lengthAdjust="spacing" textLength="82" x="17" y="107.3375">External system</text><!--MD5=[914486b73b535f0c4ac49a8d72533c21]
link ext to app--><path d="M114.25,102.5 C139.92,102.5 169.92,102.5 194.19,102.5 " fill="none" id="ext-app" style="stroke:#000000;stroke-width:1.0;"/><polygon fill="#000000" points="199.27,102.5,190.27,98.5,194.27,102.5,190.27,106.5,199.27,102.5" style="stroke:#000000;stroke-width:1.0;"/><polygon fill="#000000" points="109.18,102.5,118.18,106.5,114.18,102.5,118.18,98.5,109.18,102.5" style="stroke:#000000;stroke-width:1.0;"/><text fill="#000000" font-family="Lato" font-size="12" lengthAdjust="spacing" textLength="54" x="127.25" y="96.3375">ciphertext</text><!--MD5=[4bd16bda29b8a051ff3f15cdb247d6db]
link app to crypto--><path d="M280.59,102.5 C317.04,102.5 371.07,102.5 412.61,102.5 " fill="none" id="app-to-crypto" style="stroke:#000000;stroke-width:1.0;"/><polygon fill="#000000" points="417.61,102.5,408.61,98.5,412.61,102.5,408.61,106.5,417.61,102.5" style="stroke:#000000;stroke-width:1.0;"/><text fill="#000000" font-family="Lato" font-size="12" lengthAdjust="spacing" textLength="101" x="298.75" y="96.3375">PSA Crypto API call</text><!--MD5=[9f3f5bfaeffb73b5d37908f968ab49ea]
reverse link app to crypto--><path d="M285.71,114.74 C298.12,117.54 311.62,120.09 324.25,121.5 C355.3,124.96 389.92,121 417.95,115.82 " fill="none" id="app-backto-crypto" style="stroke:#000000;stroke-width:1.0;"/><polygon fill="#000000" points="280.83,113.62,288.7115,119.5261,285.7041,114.7349,290.4953,111.7275,280.83,113.62" style="stroke:#000000;stroke-width:1.0;"/><text fill="#000000" font-family="Lato" font-size="12" lengthAdjust="spacing" textLength="48" x="325.25" y="118.3375">response</text><!--MD5=[d97952a852c713a1d6ef7ab17551ef04]
link crypto to keys--><path d="M528.05,102.5 C553.6,102.5 583.42,102.5 606.81,102.5 " fill="none" id="crypto-to-keys" style="stroke:#000000;stroke-width:1.0;"/><polygon fill="#000000" points="612,102.5,603,98.5,607,102.5,603,106.5,612,102.5" style="stroke:#000000;stroke-width:1.0;"/><text fill="#000000" font-family="Lato" font-size="12" lengthAdjust="spacing" textLength="47" x="546.5" y="96.3375">store key</text><!--MD5=[ead8b9a19e59888a5f7d56172008e43b]
reverse link crypto to keys--><path d="M533.35,119.79 C552.3,123.15 573.28,124.75 592.5,121.5 C598.92,120.41 605.6,118.65 611.98,116.63 " fill="none" id="crypto-backto-keys" style="stroke:#000000;stroke-width:1.0;"/><polygon fill="#000000" points="528.07,118.8,536.1708,124.4015,532.9831,119.7283,537.6562,116.5406,528.07,118.8" style="stroke:#000000;stroke-width:1.0;"/><text fill="#000000" font-family="Lato" font-size="12" lengthAdjust="spacing" textLength="43" x="548.5" y="118.3375">load key</text><!--MD5=[0ee8252cc19ab4efcd3d1c5bb6f5b4c7]
link app to nvm--><path d="M240,124.55 C240,144.76 240,175.31 240,196.91 " fill="none" id="app-nvm" style="stroke:#000000;stroke-width:1.0;"/><polygon fill="#000000" points="240,201.92,244,192.92,240,196.92,236,192.92,240,201.92" style="stroke:#000000;stroke-width:1.0;"/><polygon fill="#000000" points="240,119.55,236,128.55,240,124.55,244,128.55,240,119.55" style="stroke:#000000;stroke-width:1.0;"/><text fill="#000000" font-family="Lato" font-size="12" lengthAdjust="spacing" textLength="54" x="241" y="168.8375">ciphertext</text></g></svg>