<?xml version="1.0" encoding="UTF-8" standalone="no"?><svg xmlns="http://www.w3.org/2000/svg" xmlns:xlink="http://www.w3.org/1999/xlink" contentScriptType="application/ecmascript" contentStyleType="text/css" height="224px" preserveAspectRatio="none" style="width:704px;height:224px;background:#FFFFFF;" version="1.1" viewBox="0 0 704 224" width="704px" zoomAndPan="magnify"><defs/><g><rect fill="#FFFFFF" height="211" style="stroke:#8B0000;stroke-width:1.0;stroke-dasharray:7.0,7.0;" width="515" x="183" y="7"/><text fill="#000000" font-family="Lato" font-size="12" font-style="italic" lengthAdjust="spacing" textLength="94" x="393.5" y="20.8375">«System boundary»</text><!--MD5=[4541fb81c80c07473fe4b07432ef0971]
entity app--><rect fill="#FFFFFF" height="34.3921" rx="35" ry="35" style="stroke:#000000;stroke-width:1.5;" width="81" x="199.5" y="44.5"/><text fill="#000000" font-family="Lato" font-size="12" lengthAdjust="spacing" textLength="61" x="209.5" y="66.3375">Application</text><!--MD5=[6cc4354bc172bfab4bc5d504e938f9dd]
entity crypto--><rect fill="#FFFFFF" height="34.3921" rx="35" ry="35" style="stroke:#000000;stroke-width:1.5;" width="110" x="418" y="44.5"/><text fill="#000000" font-family="Lato" font-size="12" lengthAdjust="spacing" textLength="90" x="428" y="66.3375">Cryptoprocessor</text><!--MD5=[885534b20a890cf314c9a5b140ec18ce]
entity keys--><path d="M612,50 C612,40 647,40 647,40 C647,40 682,40 682,50 L682,73.3921 C682,83.3921 647,83.3921 647,83.3921 C647,83.3921 612,83.3921 612,73.3921 L612,50 " fill="#FFFFFF" style="stroke:#000000;stroke-width:1.5;"/><path d="M612,50 C612,60 647,60 647,60 C647,60 682,60 682,50 " fill="none" style="stroke:#000000;stroke-width:1.5;"/><text fill="#000000" font-family="Lato" font-size="12" lengthAdjust="spacing" textLength="50" x="622" y="75.8375">Key Store</text><!--MD5=[a21d1e8c45edd0a89909a726cff5f3be]
entity nvm--><path d="M216,169 C216,159 240,159 240,159 C240,159 264,159 264,169 L264,192.3921 C264,202.3921 240,202.3921 240,202.3921 C240,202.3921 216,202.3921 216,192.3921 L216,169 " fill="#FFFFFF" style="stroke:#000000;stroke-width:1.5;"/><path d="M216,169 C216,179 240,179 240,179 C240,179 264,179 264,169 " fill="none" style="stroke:#000000;stroke-width:1.5;"/><text fill="#000000" font-family="Lato" font-size="12" lengthAdjust="spacing" textLength="28" x="226" y="194.8375">NVM</text><!--MD5=[7c6cc8532223f11e77b82be6cbdb2ea3]
entity ext--><rect fill="#FFFFFF" height="34.3921" style="stroke:#000000;stroke-width:1.0;" width="102" x="7" y="44.5"/><text fill="#000000" font-family="Lato" font-size="12" lengthAdjust="spacing" textLength="82" x="17" y="66.3375">External system</text><!--MD5=[914486b73b535f0c4ac49a8d72533c21]
link ext to app--><path d="M114.25,61.5 C139.92,61.5 169.92,61.5 194.19,61.5 " fill="none" id="ext-app" style="stroke:#000000;stroke-width:1.0;"/><polygon fill="#000000" points="199.27,61.5,190.27,57.5,194.27,61.5,190.27,65.5,199.27,61.5" style="stroke:#000000;stroke-width:1.0;"/><polygon fill="#000000" points="109.18,61.5,118.18,65.5,114.18,61.5,118.18,57.5,109.18,61.5" style="stroke:#000000;stroke-width:1.0;"/><text fill="#000000" font-family="Lato" font-size="12" lengthAdjust="spacing" textLength="54" x="127.25" y="55.3375">ciphertext</text><!--MD5=[4bd16bda29b8a051ff3f15cdb247d6db]
link app to crypto--><path d="M280.59,61.5 C317.04,61.5 371.07,61.5 412.61,61.5 " fill="none" id="app-to-crypto" style="stroke:#000000;stroke-width:1.0;"/><polygon fill="#000000" points="417.61,61.5,408.61,57.5,412.61,61.5,408.61,65.5,417.61,61.5" style="stroke:#000000;stroke-width:1.0;"/><text fill="#000000" font-family="Lato" font-size="12" lengthAdjust="spacing" textLength="101" x="298.75" y="55.3375">PSA Crypto API call</text><!--MD5=[9f3f5bfaeffb73b5d37908f968ab49ea]
reverse link app to crypto--><path d="M285.71,73.74 C298.12,76.54 311.62,79.09 324.25,80.5 C355.3,83.96 389.92,80 417.95,74.82 " fill="none" id="app-backto-crypto" style="stroke:#000000;stroke-width:1.0;"/><polygon fill="#000000" points="280.83,72.62,288.7115,78.5261,285.7041,73.7349,290.4953,70.7275,280.83,72.62" style="stroke:#000000;stroke-width:1.0;"/><text fill="#000000" font-family="Lato" font-size="12" lengthAdjust="spacing" textLength="48" x="325.25" y="77.3375">response</text><!--MD5=[d97952a852c713a1d6ef7ab17551ef04]
link crypto to keys--><path d="M528.05,61.5 C553.6,61.5 583.42,61.5 606.81,61.5 " fill="none" id="crypto-to-keys" style="stroke:#000000;stroke-width:1.0;"/><polygon fill="#000000" points="612,61.5,603,57.5,607,61.5,603,65.5,612,61.5" style="stroke:#000000;stroke-width:1.0;"/><text fill="#000000" font-family="Lato" font-size="12" lengthAdjust="spacing" textLength="47" x="546.5" y="55.3375">store key</text><!--MD5=[ead8b9a19e59888a5f7d56172008e43b]
reverse link crypto to keys--><path d="M533.35,78.79 C552.3,82.15 573.28,83.75 592.5,80.5 C598.92,79.41 605.6,77.65 611.98,75.63 " fill="none" id="crypto-backto-keys" style="stroke:#000000;stroke-width:1.0;"/><polygon fill="#000000" points="528.07,77.8,536.1708,83.4015,532.9831,78.7283,537.6562,75.5406,528.07,77.8" style="stroke:#000000;stroke-width:1.0;"/><text fill="#000000" font-family="Lato" font-size="12" lengthAdjust="spacing" textLength="43" x="548.5" y="77.3375">load key</text><!--MD5=[0ee8252cc19ab4efcd3d1c5bb6f5b4c7]
link app to nvm--><path d="M240,83.92 C240,103.52 240,132.57 240,153.5 " fill="none" id="app-nvm" style="stroke:#000000;stroke-width:1.0;"/><polygon fill="#000000" points="240,158.63,244,149.63,240,153.63,236,149.63,240,158.63" style="stroke:#000000;stroke-width:1.0;"/><polygon fill="#000000" points="240,78.77,236,87.77,240,83.77,244,87.77,240,78.77" style="stroke:#000000;stroke-width:1.0;"/><text fill="#000000" font-family="Lato" font-size="12" lengthAdjust="spacing" textLength="54" x="241" y="125.8375">ciphertext</text></g></svg>