<?xml version="1.0" encoding="utf-8" ?>
<svg baseProfile="full" height="57" id="svgcontent" version="1.1" viewBox="0 0 609 57" width="609" xmlns="http://www.w3.org/2000/svg" xmlns:ev="http://www.w3.org/2001/xml-events" xmlns:xlink="http://www.w3.org/1999/xlink"><defs /><g font-family="lato" font-size="11" font-weight="normal" text-anchor="middle" transform="translate(4.5,0.5)"><g stroke="black" stroke-linecap="round" stroke-width="1" transform="translate(0,13.0)"><line x1="0" x2="600" y1="0" y2="0" /><line x1="0" x2="0" y1="0" y2="26.0" /><line x1="0" x2="600" y1="26.0" y2="26.0" /><line x1="600.0" x2="600.0" y1="0" y2="26.0" /><line x1="581.25" x2="581.25" y1="0" y2="3.25" /><line x1="581.25" x2="581.25" y1="22.75" y2="26.0" /><line x1="562.5" x2="562.5" y1="0" y2="3.25" /><line x1="562.5" x2="562.5" y1="22.75" y2="26.0" /><line x1="543.75" x2="543.75" y1="0" y2="3.25" /><line x1="543.75" x2="543.75" y1="22.75" y2="26.0" /><line x1="525.0" x2="525.0" y1="0" y2="3.25" /><line x1="525.0" x2="525.0" y1="22.75" y2="26.0" /><line x1="506.25" x2="506.25" y1="0" y2="3.25" /><line x1="506.25" x2="506.25" y1="22.75" y2="26.0" /><line x1="487.5" x2="487.5" y1="0" y2="3.25" /><line x1="487.5" x2="487.5" y1="22.75" y2="26.0" /><line x1="468.75" x2="468.75" y1="0" y2="3.25" /><line x1="468.75" x2="468.75" y1="22.75" y2="26.0" /><line x1="450.0" x2="450.0" y1="0" y2="26.0" /><line x1="431.25" x2="431.25" y1="0" y2="3.25" /><line x1="431.25" x2="431.25" y1="22.75" y2="26.0" /><line x1="412.5" x2="412.5" y1="0" y2="3.25" /><line x1="412.5" x2="412.5" y1="22.75" y2="26.0" /><line x1="393.75" x2="393.75" y1="0" y2="3.25" /><line x1="393.75" x2="393.75" y1="22.75" y2="26.0" /><line x1="375.0" x2="375.0" y1="0" y2="3.25" /><line x1="375.0" x2="375.0" y1="22.75" y2="26.0" /><line x1="356.25" x2="356.25" y1="0" y2="3.25" /><line x1="356.25" x2="356.25" y1="22.75" y2="26.0" /><line x1="337.5" x2="337.5" y1="0" y2="3.25" /><line x1="337.5" x2="337.5" y1="22.75" y2="26.0" /><line x1="318.75" x2="318.75" y1="0" y2="3.25" /><line x1="318.75" x2="318.75" y1="22.75" y2="26.0" /><line x1="300.0" x2="300.0" y1="0" y2="26.0" /><line x1="281.25" x2="281.25" y1="0" y2="3.25" /><line x1="281.25" x2="281.25" y1="22.75" y2="26.0" /><line x1="262.5" x2="262.5" y1="0" y2="3.25" /><line x1="262.5" x2="262.5" y1="22.75" y2="26.0" /><line x1="243.75" x2="243.75" y1="0" y2="3.25" /><line x1="243.75" x2="243.75" y1="22.75" y2="26.0" /><line x1="225.0" x2="225.0" y1="0" y2="3.25" /><line x1="225.0" x2="225.0" y1="22.75" y2="26.0" /><line x1="206.25" x2="206.25" y1="0" y2="3.25" /><line x1="206.25" x2="206.25" y1="22.75" y2="26.0" /><line x1="187.5" x2="187.5" y1="0" y2="26.0" /><line x1="168.75" x2="168.75" y1="0" y2="26.0" /><line x1="150.0" x2="150.0" y1="0" y2="26.0" /><line x1="131.25" x2="131.25" y1="0" y2="3.25" /><line x1="131.25" x2="131.25" y1="22.75" y2="26.0" /><line x1="112.5" x2="112.5" y1="0" y2="3.25" /><line x1="112.5" x2="112.5" y1="22.75" y2="26.0" /><line x1="93.75" x2="93.75" y1="0" y2="3.25" /><line x1="93.75" x2="93.75" y1="22.75" y2="26.0" /><line x1="75.0" x2="75.0" y1="0" y2="3.25" /><line x1="75.0" x2="75.0" y1="22.75" y2="26.0" /><line x1="56.25" x2="56.25" y1="0" y2="3.25" /><line x1="56.25" x2="56.25" y1="22.75" y2="26.0" /><line x1="37.5" x2="37.5" y1="0" y2="3.25" /><line x1="37.5" x2="37.5" y1="22.75" y2="26.0" /><line x1="18.75" x2="18.75" y1="0" y2="26.0" /></g><g text-anchor="middle"><g><g transform="translate(0,13.0)" /><g transform="translate(9.375,10.4)"><text x="581.25"><tspan>0</tspan></text><text x="450.0"><tspan>7</tspan></text><text x="431.25"><tspan>8</tspan></text><text x="300.0"><tspan>15</tspan></text><text x="281.25"><tspan>16</tspan></text><text x="187.5"><tspan>21</tspan></text><text x="168.75"><tspan>22</tspan></text><text x="150.0"><tspan>23</tspan></text><text x="131.25"><tspan>24</tspan></text><text x="18.75"><tspan>30</tspan></text><text x="0.0"><tspan>31</tspan></text></g><g transform="translate(9.375,30.0)"><text x="515.625"><tspan>0</tspan></text><text x="365.625"><tspan>0</tspan></text><text x="234.375"><tspan>KA-TYPE</tspan></text><text x="168.75"><tspan>0</tspan></text><text x="150.0"><tspan>0</tspan></text><text x="75.0"><tspan>0x09</tspan></text><text><tspan>0</tspan></text></g><g transform="translate(9.375,52)" /></g></g></g></svg>